# xmcd
#
# Track frame offsets: 
#        150
#        19969
#        43831
#        62663
#        82888
#        102341
#        123629
#        144636
#        164154
#        181545
#        196828
#        219661
#        237924
#        256861
#
# Disc length: 3745 seconds
#
# Revision: 0
# Processed by: cddbd v1.5.1PL0 Copyright (c) Steve Scherf et al.
# Submitted via: ExactAudioCopy v0.95a4
#
DISCID=c50e9f0e
DTITLE=Various Artist - 日本红白Ⅱ
DYEAR=1998
DGENRE=Blues
TTITLE0=爱はエナジ一
TTITLE1=君住むガへ
TTITLE2=时の岸边
TTITLE3=ケリスマスキヤロルの顿には
TTITLE4=I LOVE YOU
TTITLE5=最后の雨
TTITLE6=このまま君だけを夺ぃりたぃ
TTITLE7=レイニ一ブル
TTITLE8=漫步人生路
TTITLE9=とまり木
TTITLE10=爱在深秋
TTITLE11=爱ゎ胜の
TTITLE12=拒绝再玩
TTITLE13=夜消沉
EXTD=
EXTT0=
EXTT1=
EXTT2=
EXTT3=
EXTT4=
EXTT5=
EXTT6=
EXTT7=
EXTT8=
EXTT9=
EXTT10=
EXTT11=
EXTT12=
EXTT13=
PLAYORDER=
